HIERARCHY
ROOT Hips
{
    OFFSET 0.000000 0.000000 0.000000
    CHANNELS 6 Xposition Yposition Zposition Zrotation Xrotation Yrotation
    JOINT Spine
    {
        OFFSET -0.000000 7.750029 0.000000
        CHANNELS 3 Zrotation Xrotation Yrotation
        JOINT Spine1
        {
            OFFSET -0.000000 19.767460 0.000000
            CHANNELS 3 Zrotation Xrotation Yrotation
            JOINT Neck
            {
                OFFSET -0.000000 19.686279 1.789662
                CHANNELS 3 Zrotation Xrotation Yrotation
                JOINT Head
                {
                    OFFSET -0.000000 13.231757 -1.890251
                    CHANNELS 3 Zrotation Xrotation Yrotation
                    End Site
                    {
                        OFFSET -0.000000 23.628138 0.000000
                    }
                }
            }
            JOINT LeftShoulder
            {
                OFFSET 3.736819 16.910755 -0.280982
                CHANNELS 3 Zrotation Xrotation Yrotation
                JOINT LeftArm
                {
                    OFFSET 13.626117 0.000000 0.000000
                    CHANNELS 3 Zrotation Xrotation Yrotation
                    JOINT LeftForeArm
                    {
                        OFFSET 31.364786 0.000000 0.000000
                        CHANNELS 3 Zrotation Xrotation Yrotation
                        JOINT LeftHand
                        {
                            OFFSET 23.389509 0.000000 0.000000
                            CHANNELS 3 Zrotation Xrotation Yrotation
                            End Site
                            {
                                OFFSET 14.176883 0.000000 0.000000
                            }
                        }
                    }
                }
            }
            JOINT RightShoulder
            {
                OFFSET -3.821718 16.910755 -0.280982
                CHANNELS 3 Zrotation Xrotation Yrotation
                JOINT RightArm
                {
                    OFFSET -13.626117 0.000000 0.000000
                    CHANNELS 3 Zrotation Xrotation Yrotation
                    JOINT RightForeArm
                    {
                        OFFSET -31.364786 0.000000 0.000000
                        CHANNELS 3 Zrotation Xrotation Yrotation
                        JOINT RightHand
                        {
                            OFFSET -23.389509 0.000000 0.000000
                            CHANNELS 3 Zrotation Xrotation Yrotation
                            End Site
                            {
                                OFFSET -14.176883 0.000000 0.000000
                            }
                        }
                    }
                }
            }
        }
    }
    JOINT LeftUpLeg
    {
        OFFSET 9.451255 0.000000 0.000000
        CHANNELS 3 Zrotation Xrotation Yrotation
        JOINT LeftLeg
        {
            OFFSET -0.000000 -41.898624 0.000000
            CHANNELS 3 Zrotation Xrotation Yrotation
            JOINT LeftFoot
            {
                OFFSET -0.000000 -38.481331 0.000000
                CHANNELS 3 Zrotation Xrotation Yrotation
                JOINT LeftToeBase
                {
                    OFFSET -0.000000 -6.143315 14.176883
                    CHANNELS 3 Zrotation Xrotation Yrotation
                    End Site
                    {
                        OFFSET -0.000000 0.000000 3.780502
                    }
                }
            }
        }
    }
    JOINT RightUpLeg
    {
        OFFSET -9.451255 0.000000 0.000000
        CHANNELS 3 Zrotation Xrotation Yrotation
        JOINT RightLeg
        {
            OFFSET -0.000000 -41.898624 0.000000
            CHANNELS 3 Zrotation Xrotation Yrotation
            JOINT RightFoot
            {
                OFFSET -0.000000 -38.481331 0.000000
                CHANNELS 3 Zrotation Xrotation Yrotation
                JOINT RightToeBase
                {
                    OFFSET -0.000000 -6.143315 14.176883
                    CHANNELS 3 Zrotation Xrotation Yrotation
                    End Site
                    {
                        OFFSET -0.000000 0.000000 3.780502
                    }
                }
            }
        }
    }
}
MOTION
Frames:    11
Frame Time:    0.010000
-7.316939    91.952187    133.397507    -0.313963    1.586527    144.685272    -1.382356    -4.065192    -2.523474    -0.020126    4.487186    -2.473632    -15.260971    53.730000    23.769999    -0.712067    -40.336594    18.094742    15.314278    -8.990928    -12.422359    -51.093304    38.050491    -40.889072    -10.506760    -43.225536    -104.021706    53.189354    -38.060081    38.715069    -18.988701    -9.276434    11.086685    41.698380    29.072941    54.684761    12.405368    -31.875523    103.522240    -6.660252    -42.395378    -43.632183    2.321131    -2.400909    8.910857    -3.037650    13.826875    4.398051    -1.008029    -5.321922    17.811527    0.000000    0.000000    0.000000    -7.619752    -5.619930    3.612286    1.334365    11.109285    5.405896    6.341428    -2.530977    -13.730739    0.000000    0.000000    0.000000    
-7.284739    91.956291    133.432358    -0.318020    1.607746    144.658829    -1.355464    -4.059515    -2.553651    -0.050820    4.459002    -2.503638    -15.366591    53.661865    23.836172    -0.511082    -40.210480    18.230347    15.285669    -9.031872    -12.441103    -50.909782    37.988605    -40.924530    -10.834472    -43.250645    -103.965050    53.616428    -38.426216    38.355106    -18.998543    -9.389459    11.163301    41.209831    29.144842    55.119068    12.336864    -32.345642    103.229416    -6.624647    -42.671162    -43.949020    2.333423    -2.380566    8.897922    -3.048107    13.826744    4.194841    -1.016154    -5.348372    18.047562    0.000000    0.000000    0.000000    -7.615341    -5.630071    3.621372    1.359859    11.134625    5.430034    6.282450    -2.546412    -13.715837    0.000000    0.000000    0.000000    
-7.244865    91.955963    133.466248    -0.301778    1.639925    144.607483    -1.355731    -4.063725    -2.572405    -0.004345    4.449053    -2.524129    -15.688833    53.529999    23.994450    -0.029970    -40.007648    18.518776    15.182749    -9.063041    -12.519759    -50.692261    37.940014    -40.917568    -11.133044    -43.415634    -104.029694    54.240879    -38.621948    38.527992    -19.076138    -9.504675    11.260560    40.977631    29.106863    55.404675    12.254522    -32.595303    102.849083    -6.231244    -42.856655    -43.756554    2.349185    -2.329538    8.979122    -3.014234    13.817566    4.055598    -1.037944    -5.346965    18.114283    0.000000    0.000000    0.000000    -7.587522    -5.621481    3.651311    1.368770    11.160798    5.457723    6.288576    -2.541961    -13.741804    0.000000    0.000000    0.000000    
-7.211255    91.959381    133.496857    -0.300494    1.670573    144.560440    -1.354297    -4.059087    -2.597841    -0.008349    4.441787    -2.549533    -15.621737    53.394905    24.041506    -0.032341    -39.756191    18.621693    15.185180    -9.122403    -12.574162    -50.595715    37.928841    -40.943684    -11.018405    -43.773659    -103.872299    54.258396    -38.602283    39.066582    -19.130009    -9.604896    11.302067    40.741814    28.882481    55.692207    12.764093    -32.471596    102.657997    -4.784623    -43.636879    -43.092026    2.366580    -2.274547    8.979609    -3.035330    13.775218    4.043429    -1.037334    -5.331678    18.157427    0.000000    0.000000    0.000000    -7.580139    -5.617167    3.662736    1.374976    11.152900    5.448669    6.247958    -2.502435    -13.681758    0.000000    0.000000    0.000000    
-7.174359    91.963371    133.531723    -0.295698    1.683947    144.499252    -1.602809    -3.777679    -2.363532    -0.050283    4.178399    -2.308842    -13.506944    53.425606    22.977240    -1.034478    -39.385132    17.903702    15.933325    -9.213181    -12.969787    -51.517876    37.429798    -41.057335    -11.230140    -43.216106    -103.713631    54.115139    -38.491890    38.517731    -18.347652    -9.775270    10.457703    39.462772    29.596600    56.083054    12.292383    -33.174316    102.370605    -3.347246    -44.175270    -42.171623    2.382578    -2.240330    9.041123    -3.008277    13.727909    4.080472    -1.040361    -5.248168    18.107830    0.000000    0.000000    0.000000    -7.558703    -5.621385    3.726449    1.398955    11.157689    5.506227    6.220703    -2.523462    -13.722340    0.000000    0.000000    0.000000    
-7.133742    91.970398    133.561188    -0.292312    1.719034    144.433823    -1.615805    -3.765349    -2.365755    -0.054737    4.166161    -2.310677    -13.323151    53.347393    22.903944    -1.069270    -39.163219    17.901962    16.092705    -9.466023    -13.064611    -51.970257    37.420441    -40.668354    -11.496833    -43.105171    -103.817551    54.483086    -38.608437    38.362843    -18.373301    -9.860431    10.413064    39.107822    29.683712    56.506287    12.209059    -33.462059    102.055931    -3.487658    -44.241642    -42.288506    2.397546    -2.165275    8.985868    -3.055642    13.659126    4.241835    -1.145714    -5.306646    18.130960    0.000000    0.000000    0.000000    -7.544584    -5.610463    3.760918    1.403403    11.187504    5.526512    6.231469    -2.547740    -13.709775    0.000000    0.000000    0.000000    
-7.092141    91.975266    133.588928    -0.285263    1.737524    144.355453    -1.082223    -4.330941    -2.913743    -0.396616    5.044101    -2.855390    -15.601771    52.925674    24.471603    -0.555928    -39.695171    18.922918    15.688645    -9.632795    -11.914320    -51.053066    37.775093    -40.369804    -11.886378    -43.638226    -104.402527    55.457298    -39.037945    39.036251    -19.438457    -10.276591    11.601225    40.189068    28.938532    57.120075    12.055666    -33.449951    101.171989    -2.920318    -44.085400    -41.947243    2.418017    -2.107727    9.013528    -3.050612    13.603786    4.238293    -1.134996    -5.243813    18.143929    0.000000    0.000000    0.000000    -7.516117    -5.602160    3.768172    1.397775    11.156321    5.562163    6.175137    -2.495842    -13.646340    0.000000    0.000000    0.000000    
-7.051983    91.984901    133.612244    -0.269177    1.776412    144.275665    -1.037506    -4.322252    -2.955969    -0.450773    5.028620    -2.897040    -15.602468    52.913044    24.598413    -0.594376    -39.566212    19.039429    15.691034    -9.622632    -11.902690    -51.097416    37.716717    -40.233654    -12.092822    -43.692650    -104.544571    55.908646    -39.127438    39.138107    -19.533659    -10.447823    11.615328    40.239754    29.059511    57.416786    11.436765    -33.584347    100.646782    -4.816675    -42.990112    -42.761509    2.414150    -2.014535    9.069360    -3.010343    13.529190    4.189205    -1.236610    -5.248210    18.201872    0.000000    0.000000    0.000000    -7.498667    -5.567193    3.817459    1.419659    11.151448    5.589063    6.232663    -2.515975    -13.698284    0.000000    0.000000    0.000000    
-7.008299    91.994858    133.636459    -0.259694    1.806297    144.187378    -0.989100    -4.312081    -2.994745    -0.524326    4.997411    -2.934639    -15.472334    52.869350    24.683052    -0.719331    -39.341068    19.130955    15.715892    -9.559634    -11.879958    -51.201435    37.580917    -40.076962    -12.298525    -43.700592    -104.766556    56.357861    -39.141232    39.329578    -19.603178    -10.521583    11.628012    40.129440    29.388548    57.912460    11.285910    -34.216526    100.361870    -4.094446    -43.569489    -42.594223    2.426837    -1.943493    9.088520    -3.013732    13.476686    4.210966    -1.203267    -5.184210    18.234926    0.000000    0.000000    0.000000    -7.469333    -5.541866    3.837976    1.409296    11.110522    5.609653    6.082672    -2.400489    -13.596947    0.000000    0.000000    0.000000    
-6.986058    92.012970    133.670471    -0.255620    1.788445    144.042999    -0.880560    -4.300706    -2.987436    -0.628707    4.912425    -2.927411    -15.566079    52.818089    24.839911    -0.518471    -39.178009    19.361605    15.732080    -9.502386    -11.874559    -51.287270    37.537521    -39.935802    -12.370105    -43.792828    -104.831192    56.440567    -39.293350    39.340611    -19.689590    -10.561198    11.583607    40.152668    29.540346    58.287899    11.178759    -34.384624    100.090073    -3.974873    -43.611176    -42.478264    2.441456    -1.923050    9.237401    -2.969795    13.423290    4.212158    -1.180511    -5.042205    18.173286    0.000000    0.000000    0.000000    -7.423797    -5.598403    3.962186    1.416518    11.115734    5.636437    6.093159    -2.362072    -13.602476    0.000000    0.000000    0.000000    
-6.948191    92.029968    133.690186    -0.264024    1.805891    143.895523    -0.823498    -4.310351    -2.993764    -0.726732    4.870429    -2.931883    -15.649325    52.771492    24.967764    -0.259309    -39.039490    19.591923    15.763246    -9.425148    -11.820572    -51.502148    37.456303    -39.748814    -12.396252    -43.851883    -104.912704    56.412998    -39.361271    39.446468    -19.716164    -10.541498    11.574896    40.195248    29.641682    58.618343    11.102398    -34.441242    99.909912    -3.917239    -43.580193    -42.414375    2.426795    -1.823484    9.200091    -2.973051    13.283086    4.349543    -1.298845    -5.040902    18.242746    0.000000    0.000000    0.000000    -7.401147    -5.604116    4.043196    1.411589    11.097408    5.666166    6.160440    -2.377021    -13.595337    0.000000    0.000000    0.000000    
